# Blender v242 OBJ File: stair2.blend
# www.blender3d.org
mtllib stair2.mtl
o Cube_Cube
v -0.949010 1.031221 6.965639
v -0.949010 1.031221 2.059302
v 1.050990 1.031221 2.059302
v 1.050990 1.031221 6.965640
v -0.949010 0.000000 6.965639
v -0.949009 0.000000 2.059302
v 1.050991 0.000000 2.059303
v 1.050990 0.000000 6.965640
v 1.460596 0.031319 1.460595
v 1.708511 0.031319 1.158508
v 1.892729 0.031319 0.813861
v 2.006170 0.031319 0.439898
v 2.044474 0.031319 0.050989
v 2.006170 0.031319 -0.337920
v 1.892729 0.031319 -0.711884
v 1.708511 0.031319 -1.056532
v 1.460596 0.031319 -1.358617
v 1.158510 0.031319 -1.606533
v 0.813863 0.031319 -1.790750
v 0.439899 0.031319 -1.904191
v 0.050990 0.031319 -1.942495
v -0.337920 0.031319 -1.904191
v -0.711884 0.031319 -1.790750
v -1.056531 0.031319 -1.606532
v -1.358617 0.031319 -1.358616
v -1.606532 0.031319 -1.056530
v -1.790749 0.031319 -0.711883
v -1.904189 0.031319 -0.337919
v -1.942494 0.031319 0.050990
v -1.904189 0.031319 0.439900
v -1.790748 0.031319 0.813864
v -1.606530 0.031319 1.158510
v -1.358614 0.031319 1.460597
v -1.056528 0.031319 1.708511
v -0.711880 0.031319 1.892728
v -0.337916 0.031319 2.006169
v 0.050993 0.031319 2.044472
v 0.439903 0.031319 2.006167
v 0.813867 0.031319 1.892726
v 1.158513 0.031319 1.708507
v 1.050990 5.965639 -1.957325
v 1.050991 5.965639 -6.863662
v -0.949009 5.965639 -6.863663
v -0.949010 5.965639 -1.957326
v 1.050990 6.996860 -1.957325
v 1.050990 6.996860 -6.863663
v -0.949010 6.996860 -6.863663
v -0.949010 6.996860 -1.957325
v -2.033806 4.039535 1.025496
v -6.940144 4.039535 1.025495
v -6.940144 4.039535 -0.974505
v -2.033806 4.039535 -0.974504
v -2.033807 3.008314 1.025496
v -6.940144 3.008314 1.025495
v -6.940143 3.008314 -0.974505
v -2.033806 3.008314 -0.974505
v 6.991135 9.024941 -0.974505
v 2.084798 9.024941 -0.974505
v 2.084797 9.024940 1.025495
v 6.991134 9.024941 1.025496
v 6.991135 10.056162 -0.974504
v 2.084797 10.056162 -0.974505
v 2.084797 10.056162 1.025495
v 6.991135 10.056162 1.025496
v -4.183132 2.050988 5.678082
v -1.729963 2.050988 1.429068
v 0.002088 2.050989 2.429068
v -2.451081 2.050988 6.678082
v -4.183132 1.019767 5.678081
v -1.729962 1.019768 1.429068
v 0.002088 1.019768 2.429070
v -2.451081 1.019768 6.678082
v 1.882931 7.036394 -1.225116
v 4.336100 7.036395 -5.474129
v 2.604050 7.036394 -6.474130
v 0.150880 7.036394 -2.225118
v 1.882931 8.067616 -1.225116
v 4.336100 8.067615 -5.474130
v 2.604049 8.067615 -6.474130
v 0.150880 8.067616 -2.225117
v -6.499621 3.019767 2.578552
v -2.250608 3.019768 0.125384
v -1.250608 3.019768 1.857435
v -5.499621 3.019767 4.310604
v -6.499621 1.988546 2.578552
v -2.250608 1.988547 0.125384
v -1.250608 1.988547 1.857436
v -5.499621 1.988546 4.310604
v 2.301600 8.056162 -0.023409
v 6.550612 8.056162 -2.476577
v 5.550613 8.056161 -4.208629
v 1.301600 8.056162 -1.755461
v 2.301600 9.087383 -0.023409
v 6.550613 9.087383 -2.476578
v 5.550613 9.087382 -4.208629
v 1.301600 9.087383 -1.755460
v -5.499621 5.110290 -4.259616
v -1.250608 5.110290 -1.806447
v -2.250608 5.110290 -0.074397
v -6.499622 5.110290 -2.527565
v -5.499620 4.079069 -4.259617
v -1.250608 4.079070 -1.806447
v -2.250610 4.079070 -0.074397
v -6.499622 4.079069 -2.527565
v 1.352587 10.044708 1.806446
v 5.601599 10.044708 4.259614
v 6.601601 10.044708 2.527564
v 2.352589 10.044708 0.074394
v 1.352587 11.075930 1.806446
v 5.601601 11.075930 4.259614
v 6.601601 11.075930 2.527564
v 2.352588 11.075930 0.074395
v -2.400092 6.079069 -6.525116
v 0.053078 6.079070 -2.276103
v -1.678973 6.079070 -1.276104
v -4.132143 6.079070 -5.525117
v -2.400090 5.047848 -6.525116
v 0.053078 5.047848 -2.276103
v -1.678975 5.047848 -1.276105
v -4.132143 5.047848 -5.525117
v -0.002085 10.911510 2.480057
v 2.451083 10.911510 6.729068
v 4.183135 10.911510 5.729071
v 1.729968 10.911510 1.480058
v -0.002085 11.942732 2.480057
v 2.451085 11.942732 6.729070
v 4.183135 11.942732 5.729071
v 1.729966 11.942732 1.480058
v 1.460596 14.997436 1.460595
v 1.708511 14.997436 1.158508
v 1.892729 14.997436 0.813861
v 2.006170 14.997436 0.439898
v 2.044474 14.997436 0.050989
v 2.006170 14.997436 -0.337920
v 1.892729 14.997436 -0.711885
v 1.708511 14.997436 -1.056532
v 1.460596 14.997436 -1.358617
v 1.158510 14.997436 -1.606533
v 0.813863 14.997436 -1.790750
v 0.439899 14.997436 -1.904191
v 0.050990 14.997436 -1.942495
v -0.337920 14.997436 -1.904191
v -0.711884 14.997436 -1.790750
v -1.056531 14.997436 -1.606532
v -1.358617 14.997436 -1.358616
v -1.606532 14.997436 -1.056530
v -1.790749 14.997436 -0.711883
v -1.904189 14.997436 -0.337919
v -1.942494 14.997436 0.050990
v -1.904189 14.997436 0.439900
v -1.790748 14.997436 0.813864
v -1.606530 14.997436 1.158510
v -1.358614 14.997436 1.460596
v -1.056528 14.997436 1.708511
v -0.711880 14.997436 1.892728
v -0.337916 14.997436 2.006169
v 0.050993 14.997436 2.044472
v 0.439903 14.997436 2.006167
v 0.813867 14.997436 1.892726
v 1.158513 14.997436 1.708507
vt 0.065500 0.746111 0.0
vt 0.433273 0.528076 0.0
vt 0.428201 0.518815 0.0
vt 0.025764 0.660150 0.0
vt 0.116005 0.819580 0.0
vt 0.443402 0.541836 0.0
vt 0.183841 0.887655 0.0
vt 0.450379 0.552827 0.0
vt 0.458625 0.560608 0.0
vt 0.470004 0.567944 0.0
vt 0.263692 0.941442 0.0
vt 0.482929 0.572780 0.0
vt 0.353100 0.979239 0.0
vt 0.496731 0.574796 0.0
vt 0.448624 0.999118 0.0
vt 0.510756 0.573869 0.0
vt 0.546664 0.999999 0.0
vt 0.524375 0.570025 0.0
vt 0.643406 0.981561 0.0
vt 0.536991 0.563417 0.0
vt 0.734996 0.944280 0.0
vt 0.548061 0.554316 0.0
vt 0.817715 0.889435 0.0
vt 0.557109 0.543090 0.0
vt 0.888156 0.819065 0.0
vt 0.563745 0.530198 0.0
vt 0.943385 0.735887 0.0
vt 0.567680 0.516166 0.0
vt 0.981073 0.643181 0.0
vt 0.568735 0.501567 0.0
vt 0.999608 0.544654 0.0
vt 0.566854 0.487001 0.0
vt 0.998172 0.444277 0.0
vt 0.562101 0.473065 0.0
vt 0.976775 0.346111 0.0
vt 0.554664 0.460331 0.0
vt 0.936262 0.254135 0.0
vt 0.544843 0.449324 0.0
vt 0.878273 0.172070 0.0
vt 0.533039 0.440493 0.0
vt 0.805174 0.103223 0.0
vt 0.519734 0.434197 0.0
vt 0.719953 0.050341 0.0
vt 0.505478 0.430691 0.0
vt 0.626087 0.015495 0.0
vt 0.490857 0.430113 0.0
vt 0.527392 0.000000 0.0
vt 0.476476 0.432478 0.0
vt 0.427852 0.004355 0.0
vt 0.462930 0.437681 0.0
vt 0.331448 0.028235 0.0
vt 0.450783 0.445501 0.0
vt 0.241980 0.070511 0.0
vt 0.440551 0.455607 0.0
vt 0.162902 0.129315 0.0
vt 0.432673 0.467566 0.0
vt 0.097176 0.202135 0.0
vt 0.427505 0.480857 0.0
vt 0.047148 0.285941 0.0
vt 0.425293 0.494873 0.0
vt 0.014458 0.377345 0.0
vt 0.425745 0.508506 0.0
vt 0.000000 0.472490 0.0
vt 0.003853 0.568126 0.0
vt 0.622348 0.603336 0.0
vt 0.498020 0.675647 0.0
vt 0.674111 0.982894 0.0
vt 0.798439 0.910583 0.0
vt 0.622349 0.603336 0.0
vt 0.325889 0.024480 0.0
vt 0.201561 0.096791 0.0
vt 0.377652 0.404038 0.0
vt 0.501980 0.331728 0.0
vt 0.667041 0.501693 0.0
vt 0.595260 0.626938 0.0
vt 0.900258 0.804327 0.0
vt 0.972039 0.679082 0.0
vt 0.667041 0.501692 0.0
vt 0.103402 0.188299 0.0
vt 0.031621 0.313544 0.0
vt 0.336619 0.490933 0.0
vt 0.408400 0.365688 0.0
vt 0.591600 0.369375 0.0
vt 0.663381 0.494620 0.0
vt 0.968379 0.317231 0.0
vt 0.896598 0.191986 0.0
vt 0.031621 0.682769 0.0
vt 0.103402 0.808014 0.0
vt 0.408400 0.630625 0.0
vt 0.336619 0.505380 0.0
vt 0.509000 0.335414 0.0
vt 0.633328 0.407725 0.0
vt 0.809419 0.100477 0.0
vt 0.685091 0.028167 0.0
vt 0.809419 0.100478 0.0
vt 0.197901 0.906896 0.0
vt 0.322229 0.979207 0.0
vt 0.498320 0.671960 0.0
vt 0.373992 0.599649 0.0
vt 1.000000 0.570467 0.0
vt 1.000000 0.425846 0.0
vt 0.647819 0.570467 0.0
vt 0.647819 0.425846 0.0
vt 0.352181 0.570467 0.0
vt 0.352181 0.425846 0.0
vt 0.000000 0.425846 0.0
vt 0.000000 0.570467 0.0
vt 0.430049 0.354778 0.0
vt 0.573611 0.354778 0.0
vt 0.430049 0.000000 0.0
vt 0.573611 0.000000 0.0
vt 0.573611 1.000000 0.0
vt 0.430049 1.000000 0.0
vt 0.573611 0.645222 0.0
vt 0.430049 0.645222 0.0
vn -0.634393 0.000000 -0.773011
vn 0.471401 0.000000 0.881919
vn 0.290284 0.000000 0.956941
vn 0.290284 0.000000 0.956940
vn 0.098019 0.000000 0.995185
vn -0.098014 0.000000 0.995185
vn -0.290284 0.000000 0.956941
vn -0.290284 0.000000 0.956940
vn -0.471396 0.000000 0.881922
vn -0.634392 0.000000 0.773012
vn -0.773011 0.000000 0.634393
vn -0.881920 0.000000 0.471398
vn -0.956940 0.000000 0.290286
vn -0.995185 0.000000 0.098018
vn -0.995185 0.000000 -0.098017
vn -0.956941 0.000000 -0.290284
vn -0.881921 0.000000 -0.471396
vn -0.773012 0.000000 -0.634392
vn -0.471398 0.000000 -0.881921
vn -0.290284 0.000000 -0.956940
vn -0.098017 0.000000 -0.995185
vn 0.098017 0.000000 -0.995185
vn 0.290284 0.000000 -0.956940
vn 0.471396 0.000000 -0.881922
vn 0.634394 0.000000 -0.773010
vn 0.773010 0.000000 -0.634394
vn 0.881921 0.000000 -0.471398
vn 0.956941 0.000000 -0.290284
vn 0.995185 0.000000 -0.098016
vn 0.995185 0.000000 0.098016
vn 0.956940 0.000000 0.290285
vn 0.881921 0.000000 0.471398
vn 0.773011 0.000000 0.634392
vn 0.000000 1.000000 0.000000
vn 0.000000 -1.000000 0.000000
vn 0.866025 0.000002 -0.500000
vn 0.866026 0.000000 -0.500000
vn 0.500000 0.000000 0.866026
vn 0.499999 -0.000002 0.866026
vn -0.866025 0.000001 0.500000
vn -0.866025 0.000000 0.500000
vn -0.499999 -0.000001 -0.866026
vn -0.500000 0.000000 -0.866026
vn 0.500000 0.000001 -0.866025
vn 0.500000 0.000000 -0.866025
vn 0.866025 0.000000 0.500000
vn 0.866025 -0.000002 0.500001
vn -0.500000 0.000001 0.866026
vn -0.500000 0.000000 0.866025
vn -0.866025 0.000000 -0.500000
vn 0.000000 1.000000 -0.000001
vn 0.000000 -1.000000 0.000001
vn -0.500000 0.000001 -0.866025
vn 0.866025 0.000000 -0.500000
vn 0.866026 -0.000001 -0.499999
vn 0.500000 0.000000 0.866025
vn -0.866026 0.000000 0.500000
vn 0.500000 0.000001 0.866025
vn 0.866026 -0.000001 -0.500000
vn -0.500000 0.000000 -0.866025
vn -0.500000 0.000001 -0.866026
vn -0.866025 -0.000001 -0.500000
vn 0.500000 -0.000001 -0.866025
vn -0.500001 -0.000001 0.866025
vn -0.500000 -0.000001 0.866025
vn 0.500000 0.000000 -0.866026
vn 0.000000 0.000000 1.000000
vn -1.000000 0.000000 0.000000
vn -1.000000 -0.000001 0.000000
vn 0.000000 0.000000 -1.000000
vn 1.000000 0.000000 0.000000
vn 1.000000 -0.000001 0.000000
vn 0.000000 -0.000001 -1.000000
vn 0.000000 -0.000001 1.000000
usemtl None_stair.jpg
s off
f 40/1/1 160/2/1 129/3/1
f 40/1/1 129/3/1 9/4/1
f 40/5/2 160/1/2 159/1/2
f 40/5/2 159/1/2 39/6/2
f 39/7/3 159/5/3 158/5/3
f 39/7/4 158/5/4 38/8/4
f 38/9/5 158/7/5 157/8/5
f 38/9/5 157/8/5 37/9/5
f 37/10/6 157/11/6 156/9/6
f 37/10/6 156/9/6 36/10/6
f 36/12/7 156/13/7 155/10/7
f 36/12/8 155/10/8 35/12/8
f 35/14/9 155/15/9 154/12/9
f 35/14/9 154/12/9 34/14/9
f 34/16/10 154/17/10 153/14/10
f 34/16/10 153/14/10 33/16/10
f 33/18/11 153/19/11 152/16/11
f 33/18/11 152/16/11 32/18/11
f 32/20/12 152/21/12 151/18/12
f 32/20/12 151/18/12 31/20/12
f 31/22/13 151/23/13 150/20/13
f 31/22/13 150/20/13 30/22/13
f 30/24/14 150/25/14 149/22/14
f 30/24/14 149/22/14 29/24/14
f 29/26/15 149/27/15 148/24/15
f 29/26/15 148/24/15 28/26/15
f 28/28/16 148/29/16 147/26/16
f 28/28/16 147/26/16 27/28/16
f 27/30/17 147/31/17 146/28/17
f 27/30/17 146/28/17 26/30/17
f 26/32/18 146/33/18 145/30/18
f 26/32/18 145/30/18 25/32/18
f 25/34/1 145/35/1 144/32/1
f 25/34/1 144/32/1 24/34/1
f 24/36/19 144/37/19 143/34/19
f 24/36/19 143/34/19 23/36/19
f 23/38/20 143/39/20 142/36/20
f 23/38/20 142/36/20 22/38/20
f 22/40/21 142/41/21 141/38/21
f 22/40/21 141/38/21 21/40/21
f 21/42/22 141/43/22 140/40/22
f 21/42/22 140/40/22 20/42/22
f 20/44/23 140/45/23 139/42/23
f 20/44/23 139/42/23 19/44/23
f 19/46/24 139/47/24 138/44/24
f 19/46/24 138/44/24 18/46/24
f 18/48/25 138/49/25 137/46/25
f 18/48/25 137/46/25 17/48/25
f 17/50/26 137/51/26 136/48/26
f 17/50/26 136/48/26 16/50/26
f 16/52/27 136/53/27 135/50/27
f 16/52/27 135/50/27 15/52/27
f 15/54/28 135/55/28 134/52/28
f 15/54/28 134/52/28 14/54/28
f 14/56/29 134/57/29 133/54/29
f 14/56/29 133/54/29 13/56/29
f 13/58/30 133/59/30 132/56/30
f 13/58/30 132/56/30 12/58/30
f 12/60/31 132/61/31 131/58/31
f 12/60/31 131/58/31 11/60/31
f 11/62/32 131/63/32 130/60/32
f 11/62/32 130/60/32 10/62/32
f 10/3/33 130/64/33 129/62/33
f 10/3/33 129/62/33 9/3/33
f 128/65/34 125/66/34 126/67/34
f 128/65/34 126/67/34 127/68/34
f 124/69/35 123/68/35 122/67/35
f 124/69/35 122/67/35 121/66/35
f 128/65/36 127/68/36 124/69/36
f 127/68/37 123/68/37 124/69/37
f 127/68/38 126/67/38 123/68/38
f 126/67/39 122/67/39 123/68/39
f 126/67/40 125/66/40 122/67/40
f 125/66/41 121/66/41 122/67/41
f 124/69/42 121/66/42 128/65/42
f 121/66/43 125/66/43 128/65/43
f 117/70/42 120/71/42 113/70/42
f 120/71/43 116/71/43 113/70/43
f 115/72/40 116/71/40 119/72/40
f 116/71/41 120/71/41 119/72/41
f 114/73/38 115/72/38 118/73/38
f 115/72/39 119/72/39 118/73/39
f 113/70/36 114/73/36 117/70/36
f 114/73/37 118/73/37 117/70/37
f 117/70/35 118/73/35 119/72/35
f 117/70/35 119/72/35 120/71/35
f 113/70/34 116/71/34 115/72/34
f 113/70/34 115/72/34 114/73/34
f 112/74/34 109/75/34 110/76/34
f 112/74/34 110/76/34 111/77/34
f 108/78/35 107/77/35 106/76/35
f 108/78/35 106/76/35 105/75/35
f 112/74/44 111/77/44 108/78/44
f 111/77/45 107/77/45 108/78/45
f 111/77/46 110/76/46 107/77/46
f 110/76/47 106/76/47 107/77/47
f 110/76/48 109/75/48 106/76/48
f 109/75/49 105/75/49 106/76/49
f 108/78/50 105/75/50 112/74/50
f 105/75/50 109/75/50 112/74/50
f 101/79/50 104/80/50 97/79/50
f 104/80/50 100/80/50 97/79/50
f 99/81/48 100/80/48 103/81/48
f 100/80/49 104/80/49 103/81/49
f 98/82/46 99/81/46 102/82/46
f 99/81/47 103/81/47 102/82/47
f 97/79/45 98/82/45 102/82/45
f 97/79/44 102/82/44 101/79/44
f 101/79/35 102/82/35 103/81/35
f 101/79/35 103/81/35 104/80/35
f 97/79/34 100/80/34 99/81/34
f 97/79/34 99/81/34 98/82/34
f 96/83/34 93/84/34 94/85/34
f 96/83/51 94/85/51 95/86/51
f 92/83/52 91/86/52 90/85/52
f 92/83/35 90/85/35 89/84/35
f 96/83/53 95/86/53 92/83/53
f 95/86/43 91/86/43 92/83/43
f 95/86/54 94/85/54 91/86/54
f 94/85/55 90/85/55 91/86/55
f 94/85/56 93/84/56 90/85/56
f 93/84/56 89/84/56 90/85/56
f 92/83/57 89/84/57 96/83/57
f 89/84/41 93/84/41 96/83/41
f 85/87/57 88/88/57 81/87/57
f 88/88/41 84/88/41 81/87/41
f 83/89/58 84/88/58 87/89/58
f 84/88/56 88/88/56 87/89/56
f 82/90/54 83/89/54 86/90/54
f 83/89/59 87/89/59 86/90/59
f 81/87/60 82/90/60 86/90/60
f 81/87/61 86/90/61 85/87/61
f 85/87/35 86/90/35 87/89/35
f 85/87/35 87/89/35 88/88/35
f 81/87/34 84/88/34 83/89/34
f 81/87/34 83/89/34 82/90/34
f 80/91/34 77/92/34 78/93/34
f 80/91/34 78/93/34 79/94/34
f 76/91/35 75/94/35 74/95/35
f 76/91/35 74/95/35 73/92/35
f 80/91/50 79/94/50 76/91/50
f 79/94/62 75/94/62 76/91/62
f 79/94/45 78/93/45 75/94/45
f 78/93/63 74/95/63 75/94/63
f 78/93/46 77/92/46 74/95/46
f 77/92/46 73/92/46 74/95/46
f 76/91/64 73/92/64 80/91/64
f 73/92/49 77/92/49 80/91/49
f 69/96/65 72/97/65 65/96/65
f 72/97/49 68/97/49 65/96/49
f 67/98/46 68/97/46 71/98/46
f 68/97/46 72/97/46 71/98/46
f 66/99/66 67/98/66 70/99/66
f 67/98/63 71/98/63 70/99/63
f 65/96/50 66/99/50 69/96/50
f 66/99/62 70/99/62 69/96/62
f 69/96/35 70/99/35 71/98/35
f 69/96/35 71/98/35 72/97/35
f 65/96/34 68/97/34 67/98/34
f 65/96/34 67/98/34 66/99/34
f 64/100/34 61/101/34 63/102/34
f 61/101/34 62/103/34 63/102/34
f 60/100/35 59/102/35 58/103/35
f 60/100/35 58/103/35 57/101/35
f 64/100/67 63/102/67 60/100/67
f 63/102/67 59/102/67 60/100/67
f 63/102/68 62/103/68 59/102/68
f 62/103/69 58/103/69 59/102/69
f 62/103/70 61/101/70 58/103/70
f 61/101/70 57/101/70 58/103/70
f 60/100/71 57/101/71 61/101/71
f 60/100/72 61/101/72 64/100/72
f 53/104/71 56/105/71 52/105/71
f 53/104/72 52/105/72 49/104/72
f 51/106/70 52/105/70 55/106/70
f 52/105/70 56/105/70 55/106/70
f 50/107/68 51/106/68 54/107/68
f 51/106/69 55/106/69 54/107/69
f 49/104/67 50/107/67 53/104/67
f 50/107/67 54/107/67 53/104/67
f 53/104/35 54/107/35 55/106/35
f 53/104/35 55/106/35 56/105/35
f 49/104/34 52/105/34 50/107/34
f 52/105/34 51/106/34 50/107/34
f 48/108/34 45/109/34 47/110/34
f 45/109/34 46/111/34 47/110/34
f 44/108/35 43/110/35 42/111/35
f 44/108/35 42/111/35 41/109/35
f 48/108/68 47/110/68 44/108/68
f 47/110/68 43/110/68 44/108/68
f 47/110/70 46/111/70 43/110/70
f 46/111/73 42/111/73 43/110/73
f 46/111/71 45/109/71 42/111/71
f 45/109/71 41/109/71 42/111/71
f 44/108/67 41/109/67 45/109/67
f 44/108/74 45/109/74 48/108/74
f 4/112/67 1/113/67 5/113/67
f 4/112/67 5/113/67 8/112/67
f 3/114/71 4/112/71 8/112/71
f 3/114/71 8/112/71 7/114/71
f 2/115/70 3/114/70 6/115/70
f 3/114/70 7/114/70 6/115/70
f 1/113/68 2/115/68 5/113/68
f 2/115/68 6/115/68 5/113/68
f 5/113/35 6/115/35 7/114/35
f 5/113/35 7/114/35 8/112/35
f 1/113/34 4/112/34 3/114/34
f 1/113/34 3/114/34 2/115/34
