# Blender v242 OBJ File: fallgrube.blend
# www.blender3d.org
mtllib pit.mtl
o ground_ground
v 4.000000 4.000000 0.000000
v -4.000000 4.000000 0.000000
v -4.000000 -4.000000 0.000000
v 4.000000 -4.000000 0.000000
v 0.000000 4.000000 0.000000
v 4.000000 0.000000 0.000000
v -4.000000 0.000000 0.000000
v 0.000000 -4.000000 0.000000
v 3.004267 4.000000 0.000000
v -2.983772 4.000000 0.000000
v 4.000000 3.004267 0.000000
v 4.000000 -2.983772 0.000000
v -4.000000 3.004267 0.000000
v -4.000000 -2.983772 0.000000
v -2.983772 -4.000000 0.000000
v 3.004267 -4.000000 0.000000
v -2.983772 0.000000 0.000000
v 0.000000 3.004267 0.000000
v 3.004267 0.000000 0.000000
v 0.000000 -2.983772 0.000000
v -2.983772 3.004267 0.000000
v 3.004267 3.004267 0.000000
v -2.983772 -2.983772 0.000000
v 3.004267 -2.983772 0.000000
v 3.004267 -2.983772 0.000000
v -2.983772 -2.983772 0.000000
v 3.004267 3.004267 0.000000
v -2.983772 3.004267 0.000000
v 0.000000 -2.983772 0.000000
v 3.004267 0.000000 0.000000
v 0.000000 3.004267 0.000000
v -2.983772 0.000000 0.000000
v 0.000000 0.000000 -3.017571
v -2.983772 0.000000 -3.017571
v 0.000000 3.004267 -3.017571
v 3.004267 0.000000 -3.017571
v 0.000000 -2.983772 -3.017571
v -2.983772 3.004267 -3.017571
v 3.004267 3.004267 -3.017571
v -2.983772 -2.983772 -3.017571
v 3.004267 -2.983772 -3.017571
vt 0.250000 1.000000 0.0
vt 0.000000 1.000000 0.0
vt 0.000000 0.750000 0.0
vt 0.250000 0.750000 0.0
vt 0.500000 1.000000 0.0
vt 0.500000 0.750000 0.0
vt 0.000000 0.500000 0.0
vt 0.250000 0.500000 0.0
vt 0.750000 1.000000 0.0
vt 0.750000 0.750000 0.0
vt 1.000000 1.000000 0.0
vt 1.000000 0.750000 0.0
vt 0.750000 0.500000 0.0
vt 1.000000 0.500000 0.0
vt 0.000000 0.250000 0.0
vt 0.250000 0.250000 0.0
vt 0.000000 0.000000 0.0
vt 0.250000 0.000000 0.0
vt 0.500000 0.250000 0.0
vt 0.500000 0.000000 0.0
vt 0.750000 0.250000 0.0
vt 1.000000 0.250000 0.0
vt 0.750000 0.000000 0.0
vt 1.000000 0.000000 0.0
vt 0.500000 0.500000 0.0
vn 0.000000 0.000000 1.000000
vn -1.000000 0.000000 0.000000
vn -0.707083 0.707083 0.000000
vn 0.000000 1.000000 0.000000
vn 0.707083 0.707083 0.000000
vn 1.000000 0.000000 0.000000
vn -0.707083 -0.707083 0.000000
vn 0.000000 -1.000000 0.000000
vn 0.707083 -0.707083 0.000000
vn 0.577349 -0.577349 0.577349
vn 0.000000 -0.707083 0.707083
vn 0.707083 0.000000 0.707083
vn -0.577349 -0.577349 0.577349
vn -0.707083 0.000000 0.707083
vn 0.577349 0.577349 0.577349
vn 0.000000 0.707083 0.707083
vn -0.577349 0.577349 0.577349
usemtl (null)
s 1
f 10/1/1 2/2/1 13/3/1 21/4/1
f 5/5/1 10/1/1 21/4/1 18/6/1
f 21/4/1 13/3/1 7/7/1 17/8/1
f 9/9/1 5/5/1 18/6/1 22/10/1
f 1/11/1 9/9/1 22/10/1 11/12/1
f 11/12/1 22/10/1 19/13/1 6/14/1
f 17/8/1 7/7/1 14/15/1 23/16/1
f 23/16/1 14/15/1 3/17/1 15/18/1
f 20/19/1 23/16/1 15/18/1 8/20/1
f 6/14/1 19/13/1 24/21/1 12/22/1
f 24/21/1 20/19/1 8/20/1 16/23/1
f 12/22/1 24/21/1 16/23/1 4/24/1
f 24/14/1 19/13/1 30/21/2 25/22/3
f 20/21/1 24/19/1 25/20/3 29/23/4
f 23/19/1 20/16/1 29/18/4 26/20/5
f 17/25/1 23/8/1 26/16/5 32/19/6
f 19/12/1 22/10/1 27/13/7 30/14/2
f 22/10/1 18/6/1 31/25/8 27/13/7
f 21/6/1 17/4/1 32/8/6 28/25/9
f 18/6/1 21/4/1 28/8/9 31/25/8
f 31/6/8 28/4/9 38/8/10 35/25/11
f 28/6/9 32/4/6 34/8/12 38/25/10
f 27/10/7 31/6/8 35/25/11 39/13/13
f 30/10/2 27/6/7 39/25/13 36/13/14
f 32/25/6 26/8/5 40/16/15 34/19/12
f 26/25/5 29/8/4 37/16/16 40/19/15
f 29/13/4 25/25/3 41/19/17 37/21/16
f 25/13/3 30/25/2 36/19/14 41/21/17
f 35/6/11 38/4/10 34/8/12 33/25/1
f 39/10/13 35/6/11 33/25/1 36/13/14
f 33/25/1 34/8/12 40/16/15 37/19/16
f 36/13/14 33/25/1 37/19/16 41/21/17
