# Blender v242 OBJ File: startpos.obj.blend
# www.blender3d.org
mtllib startpos.mtl
v 0.500002 1.000000 0.500000
v 0.500002 2.000000 0.000000
v -0.499998 2.000000 0.000000
v -0.499998 0.999999 0.500000
v 0.500002 0.000000 0.000000
v -0.499998 0.000000 0.000000
v -0.499998 2.000000 -1.000000
v 0.500002 2.000000 -1.000000
v -0.499998 -2.000000 0.000000
v -0.499998 -2.000000 -1.000000
v 0.500002 -2.000000 -1.000000
v 0.500002 -2.000000 0.000000
v 0.500002 2.000000 1.000000
v 0.500002 1.999999 2.000000
v -0.499998 2.000000 1.000000
v -0.499998 2.000000 2.000000
v 0.500002 -2.000000 1.000000
v 0.500002 -2.000000 2.000000
v -0.499998 -2.000001 2.000000
v -0.499998 -2.000000 1.000000
v -0.499998 0.000000 1.000000
v -0.499998 -1.000000 0.500000
v 0.500002 0.000000 1.000000
v 0.500002 -1.000000 0.500000
vt 0.309073 0.829946 0.0
vt 0.241271 0.912666 0.0
vt 0.167284 0.852021 0.0
vt 0.235086 0.769301 0.0
vt 0.135604 0.604783 0.0
vt 0.209591 0.665428 0.0
vt 0.073987 0.830867 0.0
vt 0.000000 0.770223 0.0
vt 0.415930 0.834555 0.0
vt 0.280326 0.999995 0.0
vt 0.180626 0.986653 0.0
vt 0.106639 0.926008 0.0
vt 0.376875 0.747225 0.0
vt 0.302888 0.686581 0.0
vt 0.722081 0.204902 0.0
vt 0.765819 0.289983 0.0
vt 0.680738 0.333721 0.0
vt 0.637000 0.248641 0.0
vt 0.252938 0.338513 0.0
vt 0.209200 0.253432 0.0
vt 0.167858 0.382252 0.0
vt 0.124119 0.297171 0.0
vt 0.681810 0.429380 0.0
vt 0.639988 0.515419 0.0
vt 0.212188 0.520211 0.0
vt 0.254010 0.434172 0.0
vt 0.641060 0.611079 0.0
vt 0.213260 0.615870 0.0
vt 0.899804 0.810107 0.0
vt 0.777324 0.807442 0.0
vt 0.779989 0.684962 0.0
vt 0.902469 0.687627 0.0
vt 0.506116 0.679002 0.0
vt 0.553607 0.821248 0.0
vt 0.562447 0.919319 0.0
vt 0.447180 0.965108 0.0
vt 0.610629 0.769642 0.0
vt 0.608364 0.805159 0.0
vt 0.674079 0.876430 0.0
vn -0.000000 0.447213 0.894427
vn 0.000000 -0.447214 -0.894427
vn 1.000000 0.000000 0.000000
vn 0.000000 1.000000 0.000000
vn -1.000000 0.000000 0.000000
vn 0.000000 -0.447214 0.894427
vn 0.000000 -1.000000 0.000000
vn 0.000000 0.447214 -0.894427
vn -0.000000 0.447214 0.894427
usemtl (null)
usemtl (null)
s off
f 1/1/1 2/2/1 3/3/1 4/4/1
f 5/5/2 6/6/2 7/7/2 8/8/2
f 1/1/3 5/9/3 8/10/3 2/2/3
f 2/2/4 8/11/4 7/12/4 3/3/4
f 3/3/5 7/7/5 6/6/5 4/4/5
f 5/13/6 1/1/6 4/4/6 6/14/6
f 9/15/7 10/16/7 11/17/7 12/18/7
f 13/19/3 14/20/3 12/18/3 11/17/3
f 15/21/4 16/22/4 14/20/4 13/19/4
f 10/23/5 9/24/5 16/25/5 15/26/5
f 9/24/6 12/27/6 14/28/6 16/25/6
f 10/23/8 15/26/8 13/19/8 11/17/8
f 17/29/7 18/30/7 19/31/7 20/32/7
f 21/33/5 22/34/5 20/35/5 19/36/5
f 23/37/8 24/38/8 22/34/8 21/33/8
f 18/30/3 17/39/3 24/38/3 23/37/3
f 17/39/2 20/35/2 22/34/2 24/38/2
f 18/30/9 23/37/9 21/33/9 19/31/9
